<svg id="Layer_1" data-name="Layer 1" xmlns="http://www.w3.org/2000/svg" xmlns:xlink="http://www.w3.org/1999/xlink" width="88.93" height="121.8" viewBox="0 0 88.93 121.8"><defs><linearGradient id="MrHighsenz_copy" y1="63.18" x2="53.25" y2="63.18" gradientUnits="userSpaceOnUse"><stop offset="0" stop-color="#620c0d"/><stop offset="1"/></linearGradient><linearGradient id="MrHighsenz_copy-2" x1="49.52" y1="57.48" x2="88.93" y2="57.48" xlink:href="#MrHighsenz_copy"/></defs><g id="LT_Pressed" data-name="LT Pressed"><path d="M74.75,56.08v-.67A5.91,5.91,0,0,1,74.75,56.08Z" transform="translate(0 0)" style="fill:#e5e5e5"/><path d="M49.72,5.47c.4-.32.8-.62,1.21-.9l2.32,110L0,121.79C12.07,5,43,10.76,49.72,5.47Z" transform="translate(0 0)" style="fill:url(#MrHighsenz_copy)"/><path d="M76.74.14C87.57.55,88.81,11.58,88.93,15.33v1.23a819.52,819.52,0,0,0,0,93.09C79,111.94,50.39,115,50.39,115s0-20.91-.68-50.6c-.81-37.5,1.22-59.78,1.22-59.78C57.34.09,64.49-.31,76.74.14Z" transform="translate(0 0)" style="fill:url(#MrHighsenz_copy-2)"/></g></svg>